<?xml version="1.0" standalone="no"?>
<!DOCTYPE svg PUBLIC "-//W3C//DTD SVG 20010904//EN"
 "http://www.w3.org/TR/2001/REC-SVG-20010904/DTD/svg10.dtd">
<svg version="1.0" xmlns="http://www.w3.org/2000/svg"
 width="1080.000000pt" height="1350.000000pt" viewBox="0 0 1080.000000 1350.000000"
 preserveAspectRatio="xMidYMid meet">
<metadata>
Created by potrace 1.16, written by Peter Selinger 2001-2019
</metadata>
<g transform="translate(0.000000,1350.000000) scale(0.100000,-0.100000)"
fill="#000000" stroke="none">
<path d="M2325 8416 c-153 -55 -239 -110 -350 -220 -108 -107 -180 -222 -223
-356 -17 -52 -42 -165 -42 -188 0 -10 206 8 268 23 77 18 198 76 266 127 99
74 198 222 246 368 25 77 37 213 21 253 -9 24 -16 27 -53 27 -24 -1 -83 -16
-133 -34z"/>
<path d="M2695 8438 c-2 -7 -6 -56 -10 -108 -11 -170 -52 -294 -141 -432 -91
-141 -249 -277 -399 -343 -80 -36 -202 -63 -320 -72 l-100 -8 -3 -32 c-4 -41
29 -164 67 -248 104 -228 308 -405 566 -489 44 -14 101 -26 127 -26 l48 0 -6
39 c-3 21 -1 79 5 127 30 224 121 407 279 556 158 149 337 228 549 243 142 10
137 7 130 70 -20 191 -176 445 -351 570 -150 107 -425 202 -441 153z"/>
<path d="M5981 7996 c-16 -19 -46 -22 -35 -4 5 8 2 9 -12 4 -40 -17 -55 -18
-69 -6 -8 7 -22 9 -31 6 -14 -5 -14 -7 0 -22 23 -22 23 -259 0 -292 -15 -22
-11 -47 7 -36 7 4 -12 -49 -27 -74 -1 -2 -21 7 -43 20 -34 19 -43 21 -50 9
-10 -16 -31 -6 -31 15 0 17 -12 18 -27 3 -8 -8 -17 -8 -32 0 -18 10 -21 9 -21
-9 0 -21 -14 -27 -25 -10 -11 17 -37 11 -42 -10 -4 -16 -9 -18 -25 -9 -17 9
-24 7 -42 -12 -11 -13 -14 -18 -6 -11 20 17 35 15 20 -3 -7 -8 -22 -15 -34
-15 -38 0 -86 -139 -86 -250 0 -27 5 -52 10 -55 6 -4 8 -10 5 -15 -3 -4 11
-34 30 -66 19 -32 35 -61 35 -66 0 -4 7 -8 15 -8 8 0 24 -9 36 -21 15 -15 24
-18 31 -11 8 8 23 5 49 -9 46 -23 63 -24 55 -4 -4 12 -2 13 16 2 16 -9 22 -9
25 0 3 9 10 9 28 1 19 -9 30 -6 59 11 19 12 47 36 61 53 27 32 48 31 27 -2
-17 -27 -15 -32 8 -25 15 5 18 3 14 -8 -7 -18 24 -27 97 -27 l55 0 -3 278 c-6
550 -9 657 -19 675 -9 16 -12 17 -23 3z m-207 -563 c20 -10 36 -25 36 -34 0
-9 7 -22 15 -29 8 -7 15 -9 15 -4 0 4 5 3 10 -2 8 -8 7 -25 -2 -58 -10 -38
-10 -49 0 -55 9 -6 7 -12 -8 -26 -19 -18 -20 -18 -20 0 0 17 -2 17 -22 -3 -37
-34 -178 -58 -178 -30 0 6 -10 22 -21 35 -14 14 -24 40 -27 73 -4 44 -7 51
-23 47 -30 -8 -22 11 11 28 19 10 27 20 24 30 -15 39 127 59 190 28z"/>
<path d="M6792 7983 c-24 -3 -36 -11 -43 -30 -6 -15 -11 -207 -12 -462 l-2
-436 84 -3 c46 -2 88 1 93 6 12 12 11 832 -1 865 -9 22 -8 27 5 27 24 0 11 23
-17 31 -26 8 -56 8 -107 2z"/>
<path d="M4084 7942 l-71 -3 -7 -436 c-6 -353 -5 -438 6 -444 7 -5 46 -9 86
-9 66 0 73 2 81 23 15 40 23 190 12 237 -9 40 -8 47 12 68 20 22 26 22 117 16
77 -5 103 -3 134 10 59 25 106 64 106 88 0 21 0 21 22 2 20 -17 21 -18 15 -1
-4 11 -1 20 7 23 32 12 47 272 17 282 -6 2 -11 10 -11 17 0 8 -22 36 -49 63
-38 38 -59 51 -93 57 -47 8 -272 13 -384 7z m121 -142 c-5 -14 -2 -20 9 -20 9
0 16 8 16 20 0 14 5 18 17 13 9 -4 45 -11 81 -17 62 -10 66 -13 78 -46 27 -75
10 -178 -31 -194 -9 -3 -52 -6 -96 -6 l-79 0 0 73 c-1 39 -5 92 -10 117 -5 27
-4 52 1 62 13 24 22 23 14 -2z"/>
<path d="M7077 7940 c-79 -14 -77 -10 -76 -209 1 -295 14 -518 31 -538 8 -10
18 -26 21 -36 7 -19 93 -77 114 -77 7 0 13 -7 13 -15 0 -23 35 -27 192 -23
138 3 146 4 179 29 19 14 44 29 57 33 12 4 27 16 33 27 12 23 4 54 -11 44 -5
-3 -10 -2 -10 4 0 6 14 14 32 19 26 7 34 14 39 43 4 18 9 186 12 373 l6 339
-70 -7 c-89 -9 -98 -13 -111 -45 -6 -14 -14 -141 -18 -281 -8 -252 -20 -349
-44 -369 -7 -6 -44 -13 -82 -17 -85 -8 -149 7 -157 37 -3 11 -11 19 -19 18
-24 -3 -38 1 -38 11 0 6 10 10 21 10 18 0 21 4 16 29 -4 16 -9 118 -12 228 -3
109 -8 240 -11 291 -7 104 0 100 -107 82z"/>
<path d="M4876 7605 c-13 -10 -22 -11 -26 -4 -13 20 -170 -112 -170 -142 0
-10 -5 -29 -11 -42 -8 -18 -8 -30 1 -47 11 -20 9 -25 -11 -41 -16 -13 -20 -21
-13 -26 6 -5 14 -29 17 -56 9 -63 29 -100 74 -134 20 -15 48 -39 61 -52 24
-22 30 -23 133 -19 106 4 139 16 139 47 0 17 11 13 38 -11 20 -20 34 -23 103
-23 60 0 82 4 89 15 6 8 10 129 10 278 l0 262 -74 0 c-41 0 -78 -4 -81 -10 -9
-15 -97 -12 -145 5 -53 19 -109 19 -134 0z m110 -140 c-4 -11 2 -15 25 -15 22
0 44 -12 76 -40 25 -22 54 -40 64 -40 25 0 24 -16 -1 -23 -16 -4 -20 -14 -20
-50 0 -47 -18 -77 -47 -77 -9 0 -13 -6 -9 -15 4 -12 0 -14 -19 -9 -16 4 -25 2
-25 -6 0 -8 -9 -10 -26 -6 -21 6 -25 4 -21 -8 5 -13 3 -14 -13 -4 -15 10 -22
10 -32 0 -19 -19 -26 -15 -30 16 -2 15 -8 26 -15 25 -7 -2 -13 6 -13 17 0 12
-7 31 -16 45 -13 20 -14 31 -2 80 9 38 20 61 36 71 12 8 20 20 16 26 -5 7 1 9
18 5 17 -5 30 -2 38 8 16 19 24 19 16 0z"/>
<path d="M6344 7610 c-34 -5 -76 -15 -95 -23 -37 -15 -145 -114 -136 -124 3
-3 -3 -22 -14 -41 -30 -57 -27 -182 6 -238 14 -23 33 -45 43 -48 10 -4 28 -19
40 -36 25 -33 89 -56 187 -66 81 -8 163 16 213 63 19 18 43 33 53 33 12 0 19
7 19 18 0 23 -19 42 -41 42 -9 0 -28 9 -42 20 -33 26 -41 25 -85 -9 -51 -39
-78 -44 -129 -21 -24 10 -43 15 -43 10 0 -4 -11 -3 -25 3 -19 9 -25 20 -25 44
0 17 -4 35 -10 38 -5 3 -10 13 -10 21 0 14 12 15 83 9 50 -4 107 -2 147 5 46
8 65 9 68 1 4 -12 72 -15 109 -5 29 8 37 33 18 54 -8 9 -15 26 -15 37 0 56
-16 88 -67 139 -29 30 -61 54 -71 54 -10 0 -22 4 -27 9 -16 15 -85 19 -151 11z
m97 -76 c-27 -34 -26 -38 7 -50 27 -11 61 -58 49 -71 -8 -8 -206 -20 -216 -13
-16 11 -32 50 -20 50 23 0 68 41 62 56 -5 14 0 15 34 9 34 -5 45 -3 69 19 37
32 40 32 15 0z"/>
<path d="M8110 7608 c-47 -26 -110 -40 -124 -29 -16 14 -148 31 -176 24 -17
-5 -20 -14 -20 -59 0 -46 3 -56 21 -62 l20 -8 -20 -26 c-23 -29 -26 -50 -11
-78 7 -13 7 -21 0 -25 -11 -7 -14 -68 -3 -78 3 -4 5 -117 4 -251 l-2 -244 68
-7 c37 -3 80 -9 96 -11 l27 -6 0 156 0 156 43 0 c24 0 48 -5 54 -11 15 -15
151 -13 170 2 12 10 16 10 24 -2 8 -12 11 -11 20 4 5 9 16 17 23 17 24 0 40
28 27 44 -10 12 -8 15 11 18 19 2 24 10 26 41 3 29 7 37 20 35 15 -3 17 9 17
108 0 84 -4 115 -15 129 -9 11 -10 16 -2 11 6 -4 12 -2 12 3 0 16 -38 51 -55
51 -8 0 -15 6 -15 14 0 24 -41 66 -65 66 -13 0 -25 5 -27 11 -6 17 -119 22
-148 7z m39 -129 c-24 -19 -21 -23 18 -19 15 1 27 -8 38 -30 9 -18 19 -29 23
-25 4 3 12 -15 19 -41 9 -36 9 -52 0 -68 -6 -12 -12 -23 -12 -26 -5 -30 -23
-49 -65 -69 -44 -21 -56 -23 -86 -13 -20 6 -41 9 -48 6 -14 -5 -32 13 -35 36
-13 104 -12 133 6 175 15 38 22 45 46 45 19 0 42 13 70 39 32 31 43 36 46 24
2 -9 -7 -24 -20 -34z"/>
<path d="M3262 7464 c-80 -17 -197 -72 -277 -129 -176 -125 -301 -376 -293
-586 l3 -75 78 13 c172 29 333 117 473 258 137 138 220 300 242 468 l9 67 -86
-1 c-47 -1 -114 -7 -149 -15z"/>
</g>
</svg>
